<svg width="61" height="60" viewBox="0 0 61 60" fill="none" xmlns="http://www.w3.org/2000/svg">
<path d="M34.6508 6.07322C36.8384 6.07322 38.618 7.85282 38.618 10.0404V11.7852H23.0204V10.0404C23.0204 7.85282 24.8 6.07322 26.9876 6.07322H34.6508ZM34.6508 3.67322H26.987C23.4704 3.67322 20.6198 6.52382 20.6198 10.0404V14.1852H41.0174V10.0404C41.0174 6.52382 38.1668 3.67322 34.6508 3.67322Z" fill="#1E1E1E"/>
<path d="M35.2514 34.656V35.655C35.2514 37.971 33.3674 39.855 31.0514 39.855H30.5822C28.2662 39.855 26.3822 37.971 26.3822 35.655V34.656H35.2514ZM37.0514 32.856H24.5822V35.655C24.5822 38.9688 27.2684 41.655 30.5822 41.655H31.0514C34.3652 41.655 37.0514 38.9688 37.0514 35.655V32.856Z" fill="#1E1E1E"/>
<path d="M54.8168 32.856H6.8168V35.256H54.8168V32.856Z" fill="#1E1E1E"/>
<path d="M55.487 11.7852H6.28701C5.62401 11.7852 5.08701 12.3222 5.08701 12.9852V55.1268C5.08701 55.7897 5.62401 56.3267 6.28701 56.3267V56.3274H55.487C56.15 56.3274 56.687 55.7903 56.687 55.1273V12.9852C56.687 12.3228 56.1494 11.7852 55.487 11.7852ZM7.48701 14.1852H54.287V53.9273H7.48701V14.1852Z" fill="#1E1E1E"/>
</svg>
