<svg width="61" height="60" viewBox="0 0 61 60" fill="none" xmlns="http://www.w3.org/2000/svg">
<path fill-rule="evenodd" clip-rule="evenodd" d="M57.3411 15.1889C57.9532 15.893 57.95 16.9413 57.3337 17.6417L39.879 37.4774C37.1499 40.5788 32.7426 40.5788 30.0135 37.4774L24.8152 31.5701C23.4507 30.0194 21.247 30.0194 19.8825 31.5701L6.46345 46.8196C5.71869 47.6659 4.39875 47.662 3.65909 46.8112C3.04697 46.1071 3.05011 45.0587 3.66645 44.3583L17.4161 28.7331C20.1452 25.6317 24.5525 25.6317 27.2816 28.7331L32.4798 34.6405C33.8444 36.1912 36.048 36.1912 37.4126 34.6405L54.5367 15.1804C55.2815 14.3341 56.6014 14.3381 57.3411 15.1889Z" fill="black"/>
<path d="M37.6171 17.5714C41.0371 17.5714 43.4286 15.1825 43.4286 11.7484C43.4286 8.31429 41.0371 6 37.6171 6H31.0536C30.7873 6 30.5714 6.21588 30.5714 6.48214V14.7843H28.4821C28.2159 14.7843 28 15.0002 28 15.2665V17.0893C28 17.3555 28.2159 17.5714 28.4821 17.5714H30.5714V18.8571H28.4821C28.2159 18.8571 28 19.073 28 19.3393V20.9464C28 21.2127 28.2159 21.4286 28.4821 21.4286H30.5714V23.5179C30.5714 23.7841 30.7873 24 31.0536 24H33.4064C33.6727 24 33.8886 23.7841 33.8886 23.5179V21.4286H40.375C40.6413 21.4286 40.8571 21.2127 40.8571 20.9464V19.3393C40.8571 19.073 40.6413 18.8571 40.375 18.8571H33.8886V17.5714H37.6171ZM33.8886 8.7622H37.0514C38.9286 8.7622 40.06 9.93179 40.06 11.7484C40.06 13.5899 38.9286 14.7843 37 14.7843H33.8886V8.7622Z" fill="black"/>
</svg>
