<svg width="107" height="106" viewBox="0 0 107 106" fill="none" xmlns="http://www.w3.org/2000/svg">
<rect x="1.52588e-05" y="25.0132" width="85.4198" height="84.1543" rx="30" transform="rotate(-17.0272 1.52588e-05 25.0132)" fill="#DB3535"/>
<g clip-path="url(#clip0_403_158)">
<path d="M68.297 40.7716C67.239 37.3175 64.3194 35.7671 60.944 36.3565C57.975 36.8214 55.5038 38.9118 55.5038 38.9118C55.5038 38.9118 51.788 36.9386 47.5212 38.2455C43.8639 39.3657 41.563 42.7374 41.563 42.7374C41.563 42.7374 37.1094 43.4348 35.9526 44.0114C32.8884 45.6168 30.6662 48.5199 31.7242 51.974C32.471 54.4122 34.5156 56.0083 36.8586 56.4019L39.3572 69.638C39.3572 69.638 44.6655 72.4569 56.8565 68.7228C69.0474 64.9887 71.8663 59.6804 71.8663 59.6804L66.5232 47.3155C68.2439 45.6773 69.0438 43.2098 68.297 40.7716Z" stroke="white" stroke-width="2" stroke-miterlimit="10"/>
<path d="M67.9162 45.3331C67.9162 45.3331 64.6122 51.2345 57.7443 46.2263" stroke="white" stroke-width="2" stroke-miterlimit="10" stroke-linejoin="round"/>
<path d="M36.8586 56.4019C36.8586 56.4019 36.8165 52.6366 42.5057 50.894" stroke="white" stroke-width="2" stroke-miterlimit="10" stroke-linejoin="round"/>
</g>
<defs>
<clipPath id="clip0_403_158">
<rect width="51" height="51" fill="white" transform="translate(20.6499 37.5864) rotate(-17.03)"/>
</clipPath>
</defs>
</svg>
