<svg width="50" height="49" viewBox="0 0 50 49" fill="none" xmlns="http://www.w3.org/2000/svg">
<rect x="0.71167" y="11.9287" width="38.8899" height="38.3138" rx="10" transform="rotate(-17.0272 0.71167 11.9287)" fill="#E8E8E8"/>
<g clip-path="url(#clip0_403_170)">
<path d="M31.3779 19.7986L29.3654 20.415L28.3778 19.188C27.3626 17.9264 25.7063 17.4178 24.1576 17.8921L19.8886 19.1998C18.3403 19.674 17.2526 21.0231 17.1178 22.637L16.9868 24.2067L14.9746 24.823C14.7121 24.9034 14.5951 25.2091 14.7369 25.444L15.1857 26.189C15.2854 26.3548 15.4853 26.4314 15.6706 26.3747L16.3452 26.1681C16.0145 26.7006 15.8993 27.3628 16.0972 28.0089L16.5914 29.6224C16.7574 30.1643 17.1143 30.59 17.561 30.8671L18.1177 32.6847C18.2996 33.2787 18.9289 33.6128 19.5229 33.4309L20.5985 33.1014C21.1925 32.9195 21.5267 32.2902 21.3447 31.6962L21.0152 30.6206L29.6206 27.9847L29.9501 29.0604C30.132 29.6544 30.7613 29.9885 31.3552 29.8066L32.4309 29.4771C33.0249 29.2952 33.359 28.6659 33.1771 28.072L32.6204 26.2544C32.8353 25.7749 32.8926 25.2224 32.7265 24.6802L32.2323 23.0667C32.0344 22.4206 31.5681 21.9366 30.9962 21.6804L31.6708 21.4738C31.856 21.4171 31.9788 21.2416 31.9685 21.0484L31.9231 20.1798C31.9087 19.9059 31.6405 19.7182 31.3779 19.7986ZM19.36 22.8242C19.4174 22.1366 19.8877 21.5532 20.5475 21.3511L24.8166 20.0435C25.4765 19.8414 26.1928 20.0613 26.6255 20.5987L27.8085 22.0685L19.2031 24.7044L19.36 22.8242ZM19.2786 28.792C18.6331 28.9897 18.0715 28.6926 17.8744 28.0492C17.6774 27.4058 17.9762 26.8451 18.6216 26.6474C19.267 26.4497 20.5308 27.1182 20.7278 27.7616C20.9249 28.405 19.924 28.5943 19.2786 28.792ZM30.0353 25.4972C29.3899 25.6949 28.4546 26.0986 28.2575 25.4553C28.0605 24.8119 28.7329 23.5503 29.3784 23.3526C30.0238 23.1549 30.5854 23.452 30.7825 24.0954C30.9795 24.7388 30.6807 25.2995 30.0353 25.4972Z" fill="black"/>
</g>
<defs>
<clipPath id="clip0_403_170">
<rect width="18" height="18" fill="white" transform="translate(12.7588 19.0305) rotate(-17.03)"/>
</clipPath>
</defs>
</svg>
