<svg width="83" height="83" viewBox="0 0 83 83" fill="none" xmlns="http://www.w3.org/2000/svg">
<rect x="29.8873" width="61.1334" height="60.2278" rx="20" transform="rotate(29.7515 29.8873 0)" fill="#FDF76F"/>
<path d="M45.375 46.9583C46.0883 46.9583 46.6666 46.38 46.6666 45.6667C46.6666 44.9533 46.0883 44.375 45.375 44.375C44.6616 44.375 44.0833 44.9533 44.0833 45.6667C44.0833 46.38 44.6616 46.9583 45.375 46.9583Z" fill="#333333"/>
<path d="M36.3334 46.9583C37.0467 46.9583 37.625 46.38 37.625 45.6667C37.625 44.9533 37.0467 44.375 36.3334 44.375C35.62 44.375 35.0417 44.9533 35.0417 45.6667C35.0417 46.38 35.62 46.9583 36.3334 46.9583Z" fill="#333333"/>
<path d="M36.3334 37.9166C37.0467 37.9166 37.625 37.3383 37.625 36.6249C37.625 35.9116 37.0467 35.3333 36.3334 35.3333C35.62 35.3333 35.0417 35.9116 35.0417 36.6249C35.0417 37.3383 35.62 37.9166 36.3334 37.9166Z" fill="#333333"/>
<path d="M40.8929 53.4166C39.1995 53.5513 37.4965 53.334 35.8912 52.7784C34.2858 52.2229 32.8128 51.341 31.5649 50.1884C30.317 49.0358 29.3212 47.6374 28.6401 46.0812C27.959 44.5249 27.6074 42.8445 27.6074 41.1458C27.6074 39.447 27.959 37.7666 28.6401 36.2104C29.3212 34.6541 30.317 33.2557 31.5649 32.1031C32.8128 30.9505 34.2858 30.0687 35.8912 29.5131C37.4965 28.9575 39.1995 28.7402 40.8929 28.8749C41.2355 28.8749 41.564 29.011 41.8062 29.2533C42.0485 29.4955 42.1846 29.824 42.1846 30.1666C42.1846 30.5092 42.0485 30.8377 41.8062 31.0799C41.564 31.3222 41.2355 31.4583 40.8929 31.4583C39.0111 31.4534 37.1683 31.9945 35.588 33.016C34.0076 34.0375 32.7574 35.4955 31.9891 37.2133C31.2208 38.9311 30.9673 40.8349 31.2593 42.6939C31.5513 44.5528 32.3764 46.2872 33.6344 47.6867C34.8924 49.0861 36.5293 50.0906 38.3468 50.5784C40.1643 51.0661 42.0842 51.0161 43.8739 50.4345C45.6635 49.8529 47.246 48.7646 48.4295 47.3016C49.613 45.8386 50.3467 44.0637 50.5416 42.192C50.5806 41.8534 50.7518 41.544 51.018 41.331C51.2841 41.1181 51.6236 41.019 51.9625 41.0554C52.3011 41.0943 52.6105 41.2655 52.8235 41.5317C53.0364 41.7978 53.1355 42.1373 53.0991 42.4762C52.7711 45.4838 51.3436 48.2641 49.0907 50.2834C46.8378 52.3027 43.9183 53.4185 40.8929 53.4166Z" fill="#333333"/>
<path d="M42.3654 40.9263C42.1703 40.9307 41.9768 40.8908 41.7994 40.8096C41.6219 40.7285 41.4652 40.6082 41.3409 40.4578C41.2166 40.3074 41.128 40.1308 41.0817 39.9413C41.0354 39.7517 41.0327 39.5541 41.0737 39.3634L43.4375 28.6038C43.4698 28.4351 43.5355 28.2745 43.6306 28.1314C43.7258 27.9884 43.8485 27.8657 43.9917 27.7707C44.1348 27.6757 44.2955 27.6102 44.4642 27.578C44.633 27.5458 44.8065 27.5477 44.9746 27.5834C47.2886 28.085 49.4094 29.2421 51.0837 30.9163C52.758 32.5906 53.915 34.7114 54.4166 37.0255C54.4527 37.1917 54.4555 37.3635 54.425 37.5308C54.3944 37.6982 54.3311 37.8578 54.2387 38.0007C54.1463 38.1435 54.0266 38.2666 53.8864 38.3631C53.7463 38.4595 53.5885 38.5273 53.4221 38.5626L42.6625 40.9005L42.3654 40.9263ZM45.6721 30.4896L44.0833 37.9167L51.5362 36.3021C51.0442 34.9629 50.2639 33.7481 49.2506 32.7437C48.2373 31.7393 47.0156 30.9698 45.6721 30.4896Z" fill="#333333"/>
</svg>
